<svg width="140" height="24" viewBox="0 0 140 24" fill="none" xmlns="http://www.w3.org/2000/svg">
  <path d="M17.3 0H0v24h4.6V14h12.7c4 0 7.2-3.1 7.2-7S21.3 0 17.3 0zm0 10H4.6V4h12.7c1.7 0 3.1 1.3 3.1 3s-1.4 3-3.1 3z" fill="#fff"/>
  <path d="M42.5 0H28v24h14.5c6.6 0 12-5.4 12-12S49.1 0 42.5 0zm0 20H32.6V4h9.9c4.4 0 8 3.6 8 8s-3.6 8-8 8z" fill="#fff"/>
  <path d="M140 20h-4.6V4H124v16h-4.6V0h20.6v20z" fill="#fff"/>
  <path d="M91.7 0v24h4.6V14h12.7v10h4.6V0h-4.6v10H96.3V0h-4.6z" fill="#fff"/>
  <path d="M71.4 0L60 24h5l2.3-4.8h13.8l2.3 4.8h5L77 0h-5.6zm-2 15.2l4.8-10 4.8 10H69.4z" fill="#fff"/>
</svg> 